<?xml version="1.0" encoding="UTF-8" standalone="no"?>
<svg
   xmlns:dc="http://purl.org/dc/elements/1.1/"
   xmlns:cc="http://creativecommons.org/ns#"
   xmlns:rdf="http://www.w3.org/1999/02/22-rdf-syntax-ns#"
   xmlns:svg="http://www.w3.org/2000/svg"
   xmlns="http://www.w3.org/2000/svg"
   xmlns:sodipodi="http://sodipodi.sourceforge.net/DTD/sodipodi-0.dtd"
   xmlns:inkscape="http://www.inkscape.org/namespaces/inkscape"
   version="1.1"
   x="0px"
   y="0px"
   viewBox="0 0 32 32"
   enable-background="new 0 0 32 32"
   xml:space="preserve"
   id="svg88"
   sodipodi:docname="noun_Sad_299403.svg"
   width="32"
   height="32"
   inkscape:version="0.92.3 (2405546, 2018-03-11)"><metadata
     id="metadata94"><rdf:RDF><cc:Work
         rdf:about=""><dc:format>image/svg+xml</dc:format><dc:type
           rdf:resource="http://purl.org/dc/dcmitype/StillImage" /><dc:title></dc:title></cc:Work></rdf:RDF></metadata><defs
     id="defs92" /><sodipodi:namedview
     pagecolor="#ffffff"
     bordercolor="#666666"
     borderopacity="1"
     objecttolerance="10"
     gridtolerance="10"
     guidetolerance="10"
     inkscape:pageopacity="0"
     inkscape:pageshadow="2"
     inkscape:window-width="1920"
     inkscape:window-height="1017"
     id="namedview90"
     showgrid="false"
     inkscape:zoom="5.9"
     inkscape:cx="16"
     inkscape:cy="20"
     inkscape:window-x="-8"
     inkscape:window-y="-8"
     inkscape:window-maximized="1"
     inkscape:current-layer="svg88" /><g
     display="none"
     id="g16"
     style="display:none"
     transform="translate(0,-8)"><g
       display="inline"
       id="g8"
       style="display:inline"><path
         d="M 16,31 C 7.729,31 1,24.271 1,16 1,7.729 7.729,1 16,1 c 8.271,0 15,6.729 15,15 0,8.271 -6.729,15 -15,15 z"
         id="path2"
         inkscape:connector-curvature="0"
         style="fill:#000000" /><g
         id="g6"><path
           d="M 16,2 C 23.72,2 30,8.28 30,16 30,23.72 23.72,30 16,30 8.28,30 2,23.72 2,16 2,8.28 8.28,2 16,2 M 16,0 C 7.163,0 0,7.163 0,16 0,24.837 7.163,32 16,32 24.837,32 32,24.837 32,16 32,7.163 24.837,0 16,0 Z"
           id="path4"
           inkscape:connector-curvature="0"
           style="fill:#000000" /></g></g><circle
       display="inline"
       cx="10.296"
       cy="11.447"
       r="2.7850001"
       id="circle10"
       style="display:inline" /><circle
       display="inline"
       cx="21.704"
       cy="11.447"
       r="2.7850001"
       id="circle12"
       style="display:inline" /><path
       display="inline"
       stroke-miterlimit="10"
       d="m 8.396,22.98 c 0,0 7.589,-5.684 15.209,0"
       id="path14"
       inkscape:connector-curvature="0"
       style="display:inline;fill:none;stroke:#000000;stroke-width:2;stroke-miterlimit:10" /></g><g
     display="none"
     id="g34"
     style="display:none"
     transform="translate(0,-8)"><circle
       display="inline"
       cx="10.296"
       cy="11.447"
       r="2.7850001"
       id="circle18"
       style="display:inline;fill:#000000" /><circle
       display="inline"
       cx="21.704"
       cy="11.447"
       r="2.7850001"
       id="circle20"
       style="display:inline;fill:#000000" /><path
       display="inline"
       d="M 8.994,23.781 7.797,22.178 c 0.082,-0.061 8.281,-6.062 16.406,-0.001 l -1.195,1.604 c -6.909,-5.153 -13.727,-0.213 -14.014,0 z"
       id="path22"
       inkscape:connector-curvature="0"
       style="display:inline;fill:#000000" /><g
       display="inline"
       id="g32"
       style="display:inline"><g
         id="g26"><path
           d="M 16,2 C 23.72,2 30,8.28 30,16 30,23.72 23.72,30 16,30 8.28,30 2,23.72 2,16 2,8.28 8.28,2 16,2 M 16,0 C 7.163,0 0,7.163 0,16 0,24.837 7.163,32 16,32 24.837,32 32,24.837 32,16 32,7.163 24.837,0 16,0 Z"
           id="path24"
           inkscape:connector-curvature="0"
           style="fill:#000000" /></g><g
         id="g30"><path
           d="M 16,1 C 24.271,1 31,7.729 31,16 31,24.271 24.271,31 16,31 7.729,31 1,24.271 1,16 1,7.729 7.729,1 16,1 M 16,0 C 7.163,0 0,7.163 0,16 0,24.837 7.163,32 16,32 24.837,32 32,24.837 32,16 32,7.163 24.837,0 16,0 Z"
           id="path28"
           inkscape:connector-curvature="0"
           style="fill:#000000" /></g></g></g><g
     display="none"
     id="g38"
     style="display:none"
     transform="translate(0,-8)"><rect
       x="-107.333"
       y="-11.333"
       display="inline"
       width="445.33301"
       height="207"
       id="rect36"
       style="display:inline;fill:#000000" /></g><g
     display="none"
     id="g64"
     style="display:none"
     transform="translate(0,-8)"><g
       display="inline"
       id="g50"
       style="display:inline"><g
         id="g42"><path
           d="M 16,31 C 7.729,31 1,24.271 1,16 1,7.729 7.729,1 16,1 c 8.271,0 15,6.729 15,15 0,8.271 -6.729,15 -15,15 z"
           id="path40"
           inkscape:connector-curvature="0"
           style="fill:#000000" /></g><g
         id="g48"><g
           id="g46"><path
             d="M 16,2 C 23.72,2 30,8.28 30,16 30,23.72 23.72,30 16,30 8.28,30 2,23.72 2,16 2,8.28 8.28,2 16,2 M 16,0 C 7.163,0 0,7.163 0,16 0,24.837 7.163,32 16,32 24.837,32 32,24.837 32,16 32,7.163 24.837,0 16,0 Z"
             id="path44"
             inkscape:connector-curvature="0"
             style="fill:#000000" /></g></g></g><g
       display="inline"
       id="g54"
       style="display:inline"><circle
         cx="10.296"
         cy="11.447"
         r="2.7850001"
         id="circle52" /></g><g
       display="inline"
       id="g58"
       style="display:inline"><circle
         cx="21.704"
         cy="11.447"
         r="2.7850001"
         id="circle56" /></g><g
       display="inline"
       id="g62"
       style="display:inline"><path
         d="M 8.994,23.781 7.797,22.178 c 0.082,-0.061 8.281,-6.062 16.406,-0.001 l -1.195,1.604 c -6.909,-5.153 -13.727,-0.213 -14.014,0 z"
         id="path60"
         inkscape:connector-curvature="0" /></g></g><path
     style="fill:#7d5d99;fill-opacity:1"
     d="M 16 0 C 7.163 0 0 7.163 0 16 C 0 24.837 7.163 32 16 32 C 24.837 32 32 24.837 32 16 C 32 7.163 24.837 0 16 0 z M 16 2 C 23.72 2 30 8.28 30 16 C 30 23.72 23.72 30 16 30 C 8.28 30 2 23.72 2 16 C 2 8.28 8.28 2 16 2 z M 10.296875 8.6621094 A 2.7850001 2.7850001 0 0 0 7.5117188 11.447266 A 2.7850001 2.7850001 0 0 0 10.296875 14.232422 A 2.7850001 2.7850001 0 0 0 13.080078 11.447266 A 2.7850001 2.7850001 0 0 0 10.296875 8.6621094 z M 21.703125 8.6621094 A 2.7850001 2.7850001 0 0 0 18.919922 11.447266 A 2.7850001 2.7850001 0 0 0 21.703125 14.232422 A 2.7850001 2.7850001 0 0 0 24.488281 11.447266 A 2.7850001 2.7850001 0 0 0 21.703125 8.6621094 z M 16.814453 19.478516 C 11.746652 19.285838 7.85325 22.135797 7.796875 22.177734 L 8.9941406 23.78125 C 9.2811406 23.56825 16.098813 18.62825 23.007812 23.78125 L 24.203125 22.177734 C 21.664062 20.283672 19.117999 19.566096 16.814453 19.478516 z "
     id="circle66" /><g
     display="none"
     id="g82"
     style="display:none"
     transform="translate(0,-8)"><g
       display="inline"
       id="g80"
       style="display:inline"><path
         d="M 16,0 C 7.163,0 0,7.163 0,16 0,24.837 7.163,32 16,32 24.837,32 32,24.837 32,16 32,7.163 24.837,0 16,0 Z m -5.704,8.663 c 1.538,0 2.785,1.247 2.785,2.785 0,1.538 -1.247,2.785 -2.785,2.785 -1.538,0 -2.785,-1.247 -2.785,-2.785 0,-1.539 1.247,-2.785 2.785,-2.785 z m 12.712,15.118 c -6.909,-5.153 -13.727,-0.213 -14.014,0 L 7.797,22.178 c 0.082,-0.061 8.281,-6.062 16.406,-0.001 z m -1.304,-9.549 c -1.538,0 -2.785,-1.247 -2.785,-2.785 0,-1.538 1.247,-2.785 2.785,-2.785 1.538,0 2.785,1.247 2.785,2.785 0,1.538 -1.247,2.785 -2.785,2.785 z"
         id="path78"
         inkscape:connector-curvature="0"
         style="fill:#000000" /></g></g></svg>