<?xml version="1.0" encoding="UTF-8" standalone="no"?>
<!-- Created with Inkscape (http://www.inkscape.org/) -->

<svg
   xmlns:dc="http://purl.org/dc/elements/1.1/"
   xmlns:cc="http://creativecommons.org/ns#"
   xmlns:rdf="http://www.w3.org/1999/02/22-rdf-syntax-ns#"
   xmlns:svg="http://www.w3.org/2000/svg"
   xmlns="http://www.w3.org/2000/svg"
   xmlns:sodipodi="http://sodipodi.sourceforge.net/DTD/sodipodi-0.dtd"
   xmlns:inkscape="http://www.inkscape.org/namespaces/inkscape"
   width="32.904999mm"
   height="32.904999mm"
   viewBox="0 0 32.904999 32.904999"
   version="1.1"
   id="svg8"
   inkscape:version="0.92.3 (2405546, 2018-03-11)"
   sodipodi:docname="icon-chrono.svg"
   inkscape:export-filename="C:\Users\adminHOC\Julien\Projets\keep-me-front\src\assets\img\keep-me-logo-coral.png"
   inkscape:export-xdpi="96"
   inkscape:export-ydpi="96">
  <defs
     id="defs2" />
  <sodipodi:namedview
     id="base"
     pagecolor="#ffffff"
     bordercolor="#666666"
     borderopacity="1.0"
     inkscape:pageopacity="0.0"
     inkscape:pageshadow="2"
     inkscape:zoom="1.28"
     inkscape:cx="-355.05988"
     inkscape:cy="216.81617"
     inkscape:document-units="mm"
     inkscape:current-layer="layer1"
     showgrid="false"
     inkscape:window-width="1920"
     inkscape:window-height="1017"
     inkscape:window-x="-8"
     inkscape:window-y="-8"
     inkscape:window-maximized="1" />
  <metadata
     id="metadata5">
    <rdf:RDF>
      <cc:Work
         rdf:about="">
        <dc:format>image/svg+xml</dc:format>
        <dc:type
           rdf:resource="http://purl.org/dc/dcmitype/StillImage" />
        <dc:title />
      </cc:Work>
    </rdf:RDF>
  </metadata>
  <g
     inkscape:label="Calque 1"
     inkscape:groupmode="layer"
     id="layer1"
     transform="translate(0,-264.095)">
    <path
       style="stroke:#333333;stroke-width:0.12558107;stroke-miterlimit:4;stroke-dasharray:none;stroke-opacity:1;image-rendering:optimizeQuality;shape-rendering:geometricPrecision;text-rendering:geometricPrecision"
       id="path6-1"
       d="m 16.452499,274.70481 c 2.999256,0 5.714366,1.21615 7.679998,3.18111 1.965631,1.96563 3.181112,4.68074 3.181112,7.68 0,2.99926 -1.215481,5.71503 -3.181112,7.68067 -1.965632,1.96496 -4.680742,3.18111 -7.679998,3.18111 -2.999257,0 -5.714367,-1.21615 -7.6799988,-3.18111 -1.9656309,-1.96564 -3.1811105,-4.68141 -3.1811105,-7.68067 0,-2.99926 1.2154796,-5.71437 3.1811105,-7.68 1.9656318,-1.96496 4.6807418,-3.18111 7.6799988,-3.18111 z m 7.413234,3.44788 c -1.897436,-1.89678 -4.518275,-3.07013 -7.413234,-3.07013 -2.89496,0 -5.5158,1.17335 -7.4132362,3.07013 -1.8974331,1.89743 -3.0707963,4.51828 -3.0707963,7.41323 0,2.89563 1.1733632,5.51647 3.0707963,7.41323 1.8974362,1.89744 4.5182762,3.0708 7.4132362,3.0708 2.894959,0 5.515798,-1.17336 7.413234,-3.0708 1.897434,-1.89676 3.070795,-4.5176 3.070795,-7.41323 0,-2.89495 -1.173361,-5.5158 -3.070795,-7.41323 z m -7.413234,-2.02581 c 2.6068,0 4.966225,1.05703 6.674452,2.76459 1.708225,1.70822 2.764583,4.06832 2.764583,6.67445 0,2.6068 -1.056358,4.96689 -2.764583,6.67445 -1.708227,1.70823 -4.067652,2.76526 -6.674452,2.76526 -2.606801,0 -4.966226,-1.05703 -6.6744538,-2.76526 -1.7082243,-1.70756 -2.7645836,-4.06765 -2.7645836,-6.67445 0,-2.60613 1.0563593,-4.96623 2.7645836,-6.67445 1.7082278,-1.70756 4.0676528,-2.76459 6.6744538,-2.76459 z m 6.407686,3.03202 c -1.64003,-1.64003 -3.905183,-2.65427 -6.407686,-2.65427 -2.502504,0 -4.767659,1.01424 -6.407688,2.65427 -1.640032,1.63936 -2.6542714,3.90519 -2.6542714,6.40702 0,2.50251 1.0142394,4.76832 2.6542714,6.40769 1.640029,1.64003 3.905184,2.65427 6.407688,2.65427 2.502503,0 4.767656,-1.01424 6.407686,-2.65427 1.640033,-1.63937 2.654272,-3.90518 2.654272,-6.40769 0,-2.50183 -1.014239,-4.76766 -2.654272,-6.40702 z m 0.321588,-1.90345 0.890551,-0.86448 0.12302,0.0709 c 0.08023,0.0468 0.175169,0.10224 0.277462,0.17383 0.104963,0.0743 0.216621,0.16447 0.327604,0.27879 0.08224,0.0849 0.163133,0.18253 0.239354,0.29685 0.07555,0.11229 0.146417,0.2407 0.208596,0.38779 l 0.05148,0.12301 -0.851774,0.77356 -0.253393,-0.2788 0.651869,-0.5917 c -0.03744,-0.0742 -0.07756,-0.1424 -0.119008,-0.20458 -0.06285,-0.0936 -0.129705,-0.17383 -0.197231,-0.24404 -0.0916,-0.0942 -0.185198,-0.16981 -0.27412,-0.23266 -0.04412,-0.0307 -0.08692,-0.0582 -0.127699,-0.0836 l -0.684627,0.66457 z m 0.823024,-0.46935 -0.516144,-0.30822 1.480239,-1.42073 0.09293,0.0154 c 0.378418,0.0642 0.739454,0.32226 1.023601,0.62914 0.355016,0.38443 0.59771,0.86448 0.601052,1.14327 l 0.0013,0.0829 -1.440124,1.35255 -0.383097,-0.59371 0.316908,-0.20392 0.13773,0.21395 0.982143,-0.92331 c -0.04211,-0.20725 -0.230659,-0.53219 -0.493411,-0.81634 -0.209936,-0.22731 -0.463329,-0.42053 -0.719395,-0.49275 l -0.983485,0.94405 0.09227,0.0555 z M 9.3855882,277.52488 8.700294,276.86032 c -0.04012,0.0254 -0.082908,0.0528 -0.1270304,0.0836 -0.088918,0.0628 -0.1831925,0.1384 -0.2741197,0.23267 -0.067524,0.0702 -0.1343849,0.15043 -0.1972307,0.24404 -0.041454,0.0622 -0.081574,0.13037 -0.1190087,0.20458 l 0.6518659,0.5917 -0.2533927,0.27879 -0.85244,-0.77355 0.052151,-0.12301 c 0.062175,-0.14709 0.1330507,-0.27546 0.2085995,-0.38779 0.076213,-0.11429 0.1571167,-0.21193 0.2393505,-0.29685 0.1109848,-0.11429 0.2226379,-0.20458 0.3276071,-0.27879 0.1022949,-0.0716 0.1972309,-0.12704 0.2774599,-0.17384 l 0.1230196,-0.0708 0.8905499,0.86448 z m -0.7541603,-1.06103 0.092932,-0.0555 -0.9834851,-0.94403 c -0.2560667,0.0721 -0.5094592,0.26543 -0.7193916,0.49274 -0.2627519,0.28416 -0.4519632,0.60908 -0.4940784,0.81634 l 0.9828106,0.92331 0.1377262,-0.21394 0.3169089,0.20392 -0.3830972,0.59369 -1.440127,-1.35253 0.00118,-0.0829 c 0.00354,-0.2788 0.2460439,-0.75884 0.6010583,-1.14327 0.2841471,-0.30688 0.6451806,-0.56495 1.0235975,-0.62913 l 0.092932,-0.0154 1.4802421,1.42073 -0.5161476,0.30822 z m 8.8353101,-1.5023 v -2.74052 h -2.028479 v 2.74052 h -0.377748 v -3.11827 h 2.783976 v 3.11827 z m -2.935743,-6.04131 c 0.5469,-0.30889 1.24022,-0.45129 1.918161,-0.45129 0.718055,0 1.425417,0.15979 1.926851,0.45196 l 0.06552,0.0374 0.02071,0.0723 c 0.144414,0.48874 0.218626,1.05502 0.218626,1.59925 0,0.53621 -0.07221,1.05569 -0.221969,1.46687 l -0.04547,0.12435 h -3.923909 l -0.04412,-0.1277 c -0.169819,-0.49007 -0.266095,-1.02627 -0.266095,-1.56849 0,-0.50545 0.08357,-1.01825 0.267432,-1.50764 l 0.02405,-0.0635 z m 1.918161,-0.0743 c -0.594371,0 -1.196763,0.11701 -1.673462,0.36839 -0.150428,0.42388 -0.218627,0.86915 -0.218627,1.31042 0,0.4553 0.07221,0.90392 0.201914,1.31844 h 3.387703 c 0.105636,-0.34699 0.157117,-0.77155 0.157117,-1.21348 0,-0.48404 -0.06217,-0.98415 -0.181855,-1.42006 -0.439925,-0.23535 -1.049006,-0.36371 -1.67279,-0.36371 z m -1.312426,5.57263 c -1.063715,-0.29217 -1.984353,-0.92866 -2.634881,-1.78177 -0.635821,-0.83439 -1.013571,-1.87604 -1.013571,-3.00528 0,-1.37059 0.555594,-2.61148 1.454167,-3.51005 0.898573,-0.89857 2.139461,-1.45417 3.510054,-1.45417 1.370592,0 2.61148,0.5556 3.510053,1.45417 0.898574,0.89857 1.454166,2.13946 1.454166,3.51005 0,1.1386 -0.384434,2.18827 -1.030283,3.02668 -0.659891,0.85644 -1.59323,1.4916 -2.669647,1.77441 l -0.09561,-0.36438 c 0.99418,-0.26075 1.857319,-0.84775 2.467064,-1.64003 0.596377,-0.77354 0.950725,-1.743 0.950725,-2.79668 0,-1.26629 -0.513471,-2.41357 -1.343181,-3.24329 -0.830378,-0.82971 -1.976996,-1.34318 -3.24329,-1.34318 -1.266295,0 -2.412913,0.51347 -3.243291,1.34318 -0.82971,0.82972 -1.34318,1.977 -1.34318,3.24329 0,1.04433 0.348331,2.00642 0.935345,2.77729 0.601054,0.78893 1.45216,1.37729 2.434307,1.64672 z m 0.0047,-0.89858 c -0.822356,-0.27746 -1.52771,-0.80764 -2.02313,-1.49895 -0.484052,-0.67327 -0.768869,-1.49897 -0.768869,-2.38952 0,-1.13324 0.459318,-2.15885 1.202111,-2.90098 0.742126,-0.74279 1.767729,-1.2021 2.900976,-1.2021 1.133248,0 2.158852,0.45931 2.900976,1.2021 0.742793,0.74213 1.202111,1.76774 1.202111,2.90098 0,0.8979 -0.288827,1.72896 -0.7789,2.40489 -0.50277,0.69332 -1.217486,1.22351 -2.048533,1.49563 l -0.117007,-0.35837 c 0.75483,-0.2467 1.403353,-0.72808 1.859997,-1.35788 0.444607,-0.61377 0.706691,-1.36793 0.706691,-2.18427 0,-1.02894 -0.416527,-1.96027 -1.091125,-2.63421 -0.67393,-0.6746 -1.605267,-1.09112 -2.634213,-1.09112 -1.028947,0 -1.960284,0.41652 -2.634213,1.09112 -0.67393,0.67394 -1.091125,1.60527 -1.091125,2.63421 0,0.81032 0.258072,1.5598 0.695994,2.17022 0.450623,0.6278 1.091125,1.10984 1.837932,1.36124 z m 1.122548,2.8027 c 0,-0.10425 0.08424,-0.18921 0.18854,-0.18921 0.104302,0 0.188541,0.0849 0.188541,0.18921 v 1.20612 c 0,0.10426 -0.08424,0.18855 -0.188541,0.18855 -0.104302,0 -0.18854,-0.0842 -0.18854,-0.18855 z m 0,17.25609 c 0,-0.10425 0.08424,-0.1892 0.18854,-0.1892 0.104302,0 0.188541,0.0849 0.188541,0.1892 v 1.20613 c 0,0.10425 -0.08424,0.18854 -0.188541,0.18854 -0.104302,0 -0.18854,-0.0842 -0.18854,-0.18854 z m -4.58982,-15.92561 c -0.05215,-0.0896 -0.02139,-0.20459 0.0682,-0.25674 0.09026,-0.0522 0.205256,-0.0214 0.257403,0.0682 l 0.603061,1.04499 c 0.05215,0.0896 0.02139,0.20459 -0.0682,0.25673 -0.09026,0.0522 -0.205257,0.0214 -0.257404,-0.0681 z m 8.628049,14.9448 c -0.05215,-0.0902 -0.02139,-0.20525 0.0682,-0.2574 0.09026,-0.0522 0.205257,-0.0214 0.257405,0.0683 l 0.60306,1.04499 c 0.05215,0.0896 0.02139,0.20525 -0.0682,0.25674 -0.09026,0.0522 -0.205256,0.0221 -0.257403,-0.0682 z M 8.3639956,281.10113 c -0.090264,-0.0522 -0.1210136,-0.16715 -0.068858,-0.2574 0.052151,-0.0902 0.1671445,-0.12102 0.2574035,-0.0688 l 1.0443261,0.60306 c 0.09026,0.0522 0.12101,0.16781 0.06887,0.2574 -0.05215,0.0903 -0.167145,0.12102 -0.257404,0.0688 z m 14.9441394,8.62804 c -0.09026,-0.0522 -0.121011,-0.16713 -0.06886,-0.2574 0.05215,-0.0902 0.167146,-0.12101 0.257405,-0.0688 l 1.044324,0.60306 c 0.09026,0.0522 0.121015,0.16781 0.06886,0.2574 -0.05215,0.0903 -0.167144,0.12101 -0.257403,0.0688 z M 7.2213893,285.74242 c -0.1043021,0 -0.1885407,-0.0849 -0.1885407,-0.18853 0,-0.10425 0.084242,-0.18922 0.1885407,-0.18922 h 1.2061215 c 0.1043021,0 0.188541,0.0849 0.188541,0.18922 0,0.10367 -0.084242,0.18853 -0.188541,0.18853 z m 17.2560957,0 c -0.104302,0 -0.188539,-0.0849 -0.188539,-0.18853 0,-0.10425 0.08424,-0.18922 0.188539,-0.18922 h 1.206123 c 0.104302,0 0.188539,0.0849 0.188539,0.18922 0,0.10367 -0.08424,0.18853 -0.188539,0.18853 z m -15.9249484,4.58982 c -0.090264,0.0522 -0.205256,0.0214 -0.2574035,-0.0688 -0.052151,-0.0896 -0.021394,-0.20525 0.068858,-0.2574 l 1.0443261,-0.60306 c 0.09026,-0.0522 0.205253,-0.0214 0.257404,0.0688 0.05215,0.0903 0.02139,0.20527 -0.06887,0.2574 z m 14.9441394,-8.62805 c -0.09026,0.0522 -0.205254,0.0214 -0.257405,-0.0688 -0.05215,-0.0896 -0.02139,-0.20525 0.06886,-0.2574 l 1.044326,-0.60306 c 0.09026,-0.0522 0.205256,-0.0214 0.257403,0.0688 0.05215,0.0902 0.02139,0.20525 -0.06886,0.2574 z m -11.496933,11.9382 c -0.05215,0.0902 -0.167144,0.12034 -0.257403,0.0683 -0.08959,-0.0515 -0.120346,-0.16715 -0.0682,-0.25674 l 0.603061,-1.045 c 0.05215,-0.0896 0.167146,-0.12034 0.257405,-0.0682 0.08959,0.0522 0.120345,0.16715 0.0682,0.2574 z m 8.628049,-14.94414 c -0.05215,0.0896 -0.167146,0.12034 -0.257405,0.0681 -0.08959,-0.0522 -0.120345,-0.16714 -0.0682,-0.25673 l 0.60306,-1.04499 c 0.05215,-0.0896 0.167145,-0.12035 0.257404,-0.0682 0.08959,0.0522 0.120345,0.16715 0.0682,0.25674 z m -4.175293,6.03061 c 0.231997,0 0.441933,0.0942 0.593701,0.24603 0.151766,0.15177 0.246036,0.36171 0.246036,0.5937 0,0.23201 -0.09427,0.44193 -0.246036,0.59371 -0.151768,0.15177 -0.361704,0.24603 -0.593701,0.24603 -0.231998,0 -0.441934,-0.0942 -0.593702,-0.24603 -0.151766,-0.15178 -0.246037,-0.3617 -0.246037,-0.59371 0,-0.23199 0.09427,-0.44193 0.246037,-0.5937 0.151768,-0.15176 0.361704,-0.24603 0.593702,-0.24603 z m 0.326935,0.5128 c -0.08357,-0.0836 -0.199237,-0.13505 -0.326935,-0.13505 -0.1277,0 -0.243365,0.0515 -0.326936,0.13505 -0.08357,0.0836 -0.135056,0.19924 -0.135056,0.32693 0,0.1277 0.05148,0.24336 0.135056,0.32695 0.08357,0.0836 0.199236,0.13504 0.326936,0.13504 0.127698,0 0.243364,-0.0515 0.326935,-0.13504 0.08357,-0.0836 0.135057,-0.19925 0.135057,-0.32695 0,-0.12769 -0.05148,-0.24336 -0.135057,-0.32693 z m -0.102956,-0.41452 c 0.126362,-0.0635 5.561932,-4.19001 5.577977,-4.20136 l 0.234005,0.29283 -5.412169,4.5517 -0.242027,-0.28749 0.07421,-0.0628 c -0.03343,0.0241 -0.05615,0.0387 -0.06418,0.0427 z m -1.749679,-15.25102 c 0,-0.0327 0.02608,-0.0595 0.05883,-0.0595 0.03209,0 0.05883,0.0267 0.05883,0.0595 v 1.8747 c 0,0.0321 -0.02674,0.0588 -0.05883,0.0588 -0.03276,0 -0.05883,-0.0267 -0.05883,-0.0588 z m 0.475357,-0.13305 c 0,-0.0321 0.02674,-0.0588 0.05883,-0.0588 0.03276,0 0.05951,0.0267 0.05951,0.0588 v 2.00775 c 0,0.0321 -0.02674,0.0588 -0.05951,0.0588 -0.03209,0 -0.05883,-0.0267 -0.05883,-0.0588 z m 0.47603,-0.0936 c 0,-0.0327 0.02608,-0.0588 0.05883,-0.0588 0.03276,0 0.05883,0.0261 0.05883,0.0588 v 2.10134 c 0,0.0321 -0.02608,0.0588 -0.05883,0.0588 -0.03276,0 -0.05883,-0.0267 -0.05883,-0.0588 z m 0.476031,-0.0816 c 0,-0.0327 0.02608,-0.0595 0.05883,-0.0595 0.03209,0 0.05883,0.0267 0.05883,0.0595 v 2.18292 c 0,0.0321 -0.02674,0.0588 -0.05883,0.0588 -0.03277,0 -0.05883,-0.0267 -0.05883,-0.0588 z m 0.475362,0.0816 c 0,-0.0327 0.02674,-0.0588 0.05883,-0.0588 0.03276,0 0.05951,0.0261 0.05951,0.0588 v 2.10134 c 0,0.0321 -0.02674,0.0588 -0.05951,0.0588 -0.03209,0 -0.05883,-0.0267 -0.05883,-0.0588 z m 0.47603,0.0936 c 0,-0.0321 0.02608,-0.0588 0.05883,-0.0588 0.03276,0 0.05883,0.0267 0.05883,0.0588 v 2.00775 c 0,0.0321 -0.02608,0.0588 -0.05883,0.0588 -0.03276,0 -0.05883,-0.0267 -0.05883,-0.0588 z m 0.476031,0.13305 c 0,-0.0327 0.02608,-0.0595 0.05883,-0.0595 0.03209,0 0.05883,0.0267 0.05883,0.0595 v 1.8747 c 0,0.0321 -0.02674,0.0588 -0.05883,0.0588 -0.03276,0 -0.05883,-0.0267 -0.05883,-0.0588 z"
       class="fil0"
       inkscape:connector-curvature="0" />
  </g>
</svg>
