<?xml version="1.0" encoding="UTF-8" standalone="no"?>
<!-- Created with Inkscape (http://www.inkscape.org/) -->

<svg
   xmlns:dc="http://purl.org/dc/elements/1.1/"
   xmlns:cc="http://creativecommons.org/ns#"
   xmlns:rdf="http://www.w3.org/1999/02/22-rdf-syntax-ns#"
   xmlns:svg="http://www.w3.org/2000/svg"
   xmlns="http://www.w3.org/2000/svg"
   xmlns:sodipodi="http://sodipodi.sourceforge.net/DTD/sodipodi-0.dtd"
   xmlns:inkscape="http://www.inkscape.org/namespaces/inkscape"
   width="32.904999mm"
   height="32.904999mm"
   viewBox="0 0 32.904999 32.904999"
   version="1.1"
   id="svg8"
   inkscape:version="0.92.3 (2405546, 2018-03-11)"
   sodipodi:docname="icon-visit-card.svg"
   inkscape:export-filename="C:\Users\adminHOC\Julien\Projets\keep-me-front\src\assets\img\keep-me-logo-coral.png"
   inkscape:export-xdpi="96"
   inkscape:export-ydpi="96">
  <defs
     id="defs2" />
  <sodipodi:namedview
     id="base"
     pagecolor="#ffffff"
     bordercolor="#666666"
     borderopacity="1.0"
     inkscape:pageopacity="0.0"
     inkscape:pageshadow="2"
     inkscape:zoom="1.28"
     inkscape:cx="-355.05988"
     inkscape:cy="216.81617"
     inkscape:document-units="mm"
     inkscape:current-layer="layer1"
     showgrid="false"
     inkscape:window-width="1920"
     inkscape:window-height="1017"
     inkscape:window-x="-8"
     inkscape:window-y="-8"
     inkscape:window-maximized="1" />
  <metadata
     id="metadata5">
    <rdf:RDF>
      <cc:Work
         rdf:about="">
        <dc:format>image/svg+xml</dc:format>
        <dc:type
           rdf:resource="http://purl.org/dc/dcmitype/StillImage" />
        <dc:title />
      </cc:Work>
    </rdf:RDF>
  </metadata>
  <g
     inkscape:label="Calque 1"
     inkscape:groupmode="layer"
     id="layer1"
     transform="translate(0,-264.095)">
    <g
       transform="matrix(0.31239074,0,0,0.31239074,0.83280619,264.92796)"
       id="g22"
       style="stroke:#333333;stroke-opacity:1">
      <g
         id="g20"
         style="stroke:#333333;stroke-opacity:1">
        <g
           id="g18"
           style="stroke:#333333;stroke-opacity:1">
          <path
             style="fill:none;stroke:#333333;stroke-opacity:1"
             inkscape:connector-curvature="0"
             d="m 65.383,48.956 c 2.006,0 3.855,-0.67 5.351,-1.787 -1.996,-1.759 -3.264,-4.326 -3.264,-7.189 0,-2.863 1.268,-5.43 3.264,-7.189 -1.496,-1.117 -3.345,-1.786 -5.351,-1.786 -4.949,0 -8.975,4.026 -8.975,8.975 -0.001,4.95 4.026,8.976 8.975,8.976 z"
             id="path2-2" />
          <path
             style="fill:none;stroke:#333333;stroke-opacity:1"
             inkscape:connector-curvature="0"
             d="m 71.221,33.177 c -1.917,1.647 -3.137,4.083 -3.137,6.803 0,2.72 1.22,5.156 3.137,6.803 1.917,-1.647 3.137,-4.084 3.137,-6.803 0,-2.719 -1.22,-5.155 -3.137,-6.803 z"
             id="path4" />
          <path
             style="fill:none;stroke:#333333;stroke-opacity:1"
             inkscape:connector-curvature="0"
             d="m 74.972,39.98 c 0,2.863 -1.268,5.43 -3.264,7.189 1.496,1.117 3.345,1.787 5.351,1.787 4.949,0 8.976,-4.026 8.976,-8.976 0,-4.949 -4.026,-8.975 -8.976,-8.975 -2.006,0 -3.855,0.67 -5.351,1.787 1.996,1.758 3.264,4.325 3.264,7.188 z"
             id="path6" />
          <path
             style="fill:none;stroke:#333333;stroke-opacity:1"
             inkscape:connector-curvature="0"
             d="M 94.386,56.9 V 22.487 c 0,-0.614 -0.499,-1.113 -1.112,-1.113 H 6.727 c -0.613,0 -1.112,0.499 -1.112,1.113 V 56.9 Z M 65.383,30.391 c 2.198,0 4.219,0.751 5.838,1.999 1.619,-1.248 3.64,-1.999 5.838,-1.999 5.288,0 9.59,4.302 9.59,9.589 0,5.287 -4.302,9.59 -9.59,9.59 -2.198,0 -4.219,-0.751 -5.838,-2 -1.619,1.248 -3.64,2 -5.838,2 -5.288,0 -9.59,-4.302 -9.59,-9.59 0,-5.288 4.302,-9.589 9.59,-9.589 z"
             id="path8" />
          <path
             style="fill:none;stroke:#333333;stroke-opacity:1"
             inkscape:connector-curvature="0"
             d="m 5.614,69.02 v 8.494 c 0,0.613 0.499,1.112 1.112,1.112 h 86.547 c 0.613,0 1.112,-0.499 1.112,-1.112 V 69.02 Z"
             id="path10" />
          <rect
             style="fill:none;stroke:#333333;stroke-opacity:1"
             x="5.6139998"
             y="57.514"
             width="88.772003"
             height="10.892"
             id="rect12" />
          <path
             inkscape:connector-curvature="0"
             d="M 93.273,20.76 H 6.727 C 5.775,20.76 5,21.535 5,22.487 v 34.72 11.506 8.801 c 0,0.952 0.775,1.726 1.727,1.726 h 86.547 c 0.952,0 1.727,-0.774 1.727,-1.726 V 68.713 57.207 22.487 C 95,21.535 94.225,20.76 93.273,20.76 Z M 6.727,21.375 h 86.547 c 0.613,0 1.112,0.499 1.112,1.113 V 56.9 H 5.614 V 22.487 c 0,-0.613 0.499,-1.112 1.113,-1.112 z M 94.386,68.406 H 5.614 V 57.514 H 94.386 Z M 93.273,78.625 H 6.727 c -0.613,0 -1.112,-0.499 -1.112,-1.112 V 69.02 h 88.772 v 8.494 c -0.001,0.612 -0.5,1.111 -1.114,1.111 z"
             id="path14"
             style="stroke:#333333;stroke-opacity:1" />
          <path
             inkscape:connector-curvature="0"
             d="m 65.383,49.57 c 2.198,0 4.219,-0.751 5.838,-2 1.619,1.248 3.64,2 5.838,2 5.288,0 9.59,-4.302 9.59,-9.59 0,-5.288 -4.302,-9.589 -9.59,-9.589 -2.198,0 -4.219,0.751 -5.838,1.999 -1.619,-1.248 -3.64,-1.999 -5.838,-1.999 -5.288,0 -9.59,4.302 -9.59,9.589 0,5.287 4.302,9.59 9.59,9.59 z M 77.059,31.005 c 4.949,0 8.976,4.026 8.976,8.975 0,4.95 -4.026,8.976 -8.976,8.976 -2.006,0 -3.855,-0.67 -5.351,-1.787 1.996,-1.759 3.264,-4.326 3.264,-7.189 0,-2.863 -1.268,-5.43 -3.264,-7.189 1.496,-1.116 3.345,-1.786 5.351,-1.786 z m -5.838,15.779 c -1.917,-1.647 -3.137,-4.084 -3.137,-6.803 0,-2.72 1.22,-5.156 3.137,-6.803 1.917,1.647 3.137,4.083 3.137,6.803 0,2.719 -1.22,5.155 -3.137,6.803 z M 65.383,31.005 c 2.006,0 3.855,0.67 5.351,1.786 -1.996,1.759 -3.264,4.326 -3.264,7.189 0,2.863 1.268,5.43 3.264,7.189 -1.496,1.117 -3.345,1.787 -5.351,1.787 -4.949,0 -8.975,-4.026 -8.975,-8.976 -0.001,-4.949 4.026,-8.975 8.975,-8.975 z"
             id="path16"
             style="stroke:#333333;stroke-opacity:1" />
        </g>
      </g>
    </g>
  </g>
</svg>
