<?xml version="1.0" encoding="UTF-8" standalone="no"?>
<!-- Created with Inkscape (http://www.inkscape.org/) -->

<svg
   xmlns:dc="http://purl.org/dc/elements/1.1/"
   xmlns:cc="http://creativecommons.org/ns#"
   xmlns:rdf="http://www.w3.org/1999/02/22-rdf-syntax-ns#"
   xmlns:svg="http://www.w3.org/2000/svg"
   xmlns="http://www.w3.org/2000/svg"
   xmlns:sodipodi="http://sodipodi.sourceforge.net/DTD/sodipodi-0.dtd"
   xmlns:inkscape="http://www.inkscape.org/namespaces/inkscape"
   width="32.904999mm"
   height="32.904999mm"
   viewBox="0 0 32.904999 32.904999"
   version="1.1"
   id="svg8"
   inkscape:version="0.92.3 (2405546, 2018-03-11)"
   sodipodi:docname="icon-quality.svg"
   inkscape:export-filename="C:\Users\adminHOC\Julien\Projets\keep-me-front\src\assets\img\keep-me-logo-coral.png"
   inkscape:export-xdpi="96"
   inkscape:export-ydpi="96">
  <defs
     id="defs2" />
  <sodipodi:namedview
     id="base"
     pagecolor="#ffffff"
     bordercolor="#666666"
     borderopacity="1.0"
     inkscape:pageopacity="0.0"
     inkscape:pageshadow="2"
     inkscape:zoom="1.28"
     inkscape:cx="-212.48175"
     inkscape:cy="216.81617"
     inkscape:document-units="mm"
     inkscape:current-layer="layer1"
     showgrid="false"
     inkscape:window-width="1920"
     inkscape:window-height="1017"
     inkscape:window-x="-8"
     inkscape:window-y="-8"
     inkscape:window-maximized="1" />
  <metadata
     id="metadata5">
    <rdf:RDF>
      <cc:Work
         rdf:about="">
        <dc:format>image/svg+xml</dc:format>
        <dc:type
           rdf:resource="http://purl.org/dc/dcmitype/StillImage" />
        <dc:title></dc:title>
      </cc:Work>
    </rdf:RDF>
  </metadata>
  <g
     inkscape:label="Calque 1"
     inkscape:groupmode="layer"
     id="layer1"
     transform="translate(0,-264.095)">
    <path
       inkscape:connector-curvature="0"
       id="path2"
       overflow="visible"
       display="inline"
       visibility="visible"
       marker="none"
       d="m 16.4525,266.80137 a 0.31242198,0.31242198 0 0 0 -0.175722,0.0586 l -1.649825,1.12266 -1.942671,-0.41002 a 0.31242198,0.31242198 0 0 0 -0.322163,0.13668 l -1.093365,1.66933 -1.9426712,0.36121 a 0.31242198,0.31242198 0 0 0 -0.253813,0.25381 l -0.361185,1.94268 -1.669353,1.09337 a 0.31242198,0.31242198 0 0 0 -0.136676,0.32215 l 0.410018,1.94268 -1.122671,1.64981 a 0.31242198,0.31242198 0 0 0 0,0.34168 l 1.122671,1.64982 -0.410018,1.94268 a 0.31242198,0.31242198 0 0 0 0.136676,0.32214 l 1.132411,0.74192 -5.4180417,8.43455 a 0.31242198,0.31242198 0 0 0 0.322175,0.47837 l 4.4027317,-0.8786 1.171468,4.09035 a 0.31242198,0.31242198 0 0 0 0.566247,0.078 l 4.6370282,-7.73167 0.771202,-0.16595 1.649825,1.12265 a 0.31242198,0.31242198 0 0 0 0.175722,0.0586 0.31242198,0.31242198 0 0 0 0.175722,-0.0586 l 1.649824,-1.12265 0.771203,0.16595 4.637028,7.73167 a 0.31242198,0.31242198 0 0 0 0.566247,-0.078 l 1.171468,-4.09035 4.402732,0.8786 a 0.31242198,0.31242198 0 0 0 0.322174,-0.47837 l -5.427794,-8.43455 1.132423,-0.74192 a 0.31242198,0.31242198 0 0 0 0.136641,-0.32214 l -0.409983,-1.94268 1.122635,-1.64982 a 0.31242198,0.31242198 0 0 0 0,-0.34168 l -1.122635,-1.64981 0.409983,-1.94268 a 0.31242198,0.31242198 0 0 0 -0.136641,-0.32215 l -1.669353,-1.09337 -0.361185,-1.94268 a 0.31242198,0.31242198 0 0 0 -0.253848,-0.25381 l -1.942671,-0.36121 -1.093366,-1.66933 a 0.31242198,0.31242198 0 0 0 -0.322175,-0.13668 l -1.932883,0.41002 -1.649824,-1.12266 a 0.31242198,0.31242198 0 0 0 -0.175722,-0.0586 z m 0,0.69312 1.571698,1.07384 a 0.31242198,0.31242198 0 0 0 0.244072,0.0488 l 1.854816,-0.38072 1.04458,1.59124 a 0.31242198,0.31242198 0 0 0 0.204991,0.13667 l 1.874344,0.35144 0.351433,1.87434 a 0.31242198,0.31242198 0 0 0 0.136676,0.20501 l 1.591227,1.04456 -0.380713,1.86458 a 0.31242198,0.31242198 0 0 0 0.04876,0.24405 l 1.073814,1.57172 -1.073814,1.56196 a 0.31242198,0.31242198 0 0 0 -0.04876,0.24405 l 0.380713,1.86457 -1.591227,1.04456 a 0.31242198,0.31242198 0 0 0 -0.136676,0.20499 l -0.351433,1.87435 -1.874344,0.35144 a 0.31242198,0.31242198 0 0 0 -0.204991,0.13668 l -1.04458,1.59125 -1.854816,-0.38074 a 0.31242198,0.31242198 0 0 0 -0.244072,0.0489 l -1.571698,1.07385 -1.571699,-1.07385 a 0.31242198,0.31242198 0 0 0 -0.244072,-0.0489 l -1.864568,0.38074 -1.044568,-1.59125 a 0.31242198,0.31242198 0 0 0 -0.204991,-0.13668 l -1.8743442,-0.35144 -0.351444,-1.87435 a 0.31242198,0.31242198 0 0 0 -0.136701,-0.20494 l -1.591227,-1.04457 0.380714,-1.86457 a 0.31242198,0.31242198 0 0 0 -0.04876,-0.24404 l -1.073837,-1.56196 1.073837,-1.57172 a 0.31242198,0.31242198 0 0 0 0.04876,-0.24405 l -0.380714,-1.86458 1.591227,-1.04456 a 0.31242198,0.31242198 0 0 0 0.136701,-0.20501 l 0.351444,-1.87435 1.8743442,-0.35143 a 0.31242198,0.31242198 0 0 0 0.204991,-0.13668 l 1.044568,-1.59123 1.864568,0.38072 a 0.31242198,0.31242198 0 0 0 0.244072,-0.0488 z m 0,2.44055 c -3.964484,0 -7.1849912,3.22053 -7.1849912,7.18499 0,3.96443 3.2205072,7.18497 7.1849912,7.18497 3.964483,0 7.184991,-3.22054 7.184991,-7.18497 0,-3.96446 -3.220508,-7.18499 -7.184991,-7.18499 z m 0,0.62478 c 3.626794,0 6.560205,2.9334 6.560205,6.56021 0,3.6268 -2.933411,6.56019 -6.560205,6.56019 -3.626795,0 -6.5602062,-2.93339 -6.5602062,-6.56019 0,-3.62681 2.9334112,-6.56021 6.5602062,-6.56021 z m 3.436302,3.0751 -0.663831,0.66383 -3.748689,3.74869 -1.845051,-1.61077 -0.702877,-0.61501 -1.230065,1.41552 0.702876,0.61502 2.49913,2.18673 0.654078,0.57595 0.624785,-0.62477 4.373475,-4.37347 0.663831,-0.65406 z m -11.1874932,8.64931 0.0094,0.009 0.361184,1.94267 a 0.31242198,0.31242198 0 0 0 0.253813,0.25381 l 1.9426712,0.36122 1.093366,1.66932 a 0.31242198,0.31242198 0 0 0 0.322163,0.13668 l 0.351444,-0.078 -3.9732092,6.62856 -1.05432,-3.68036 a 0.31242198,0.31242198 0 0 0 -0.361126,-0.22452 l -3.9634557,0.79075 5.0177757,-7.80976 z m 15.5023812,0 5.017777,7.80978 -3.963456,-0.79075 a 0.31242198,0.31242198 0 0 0 -0.36122,0.22454 l -1.054309,3.68034 -3.973209,-6.61878 0.341656,0.0684 a 0.31242198,0.31242198 0 0 0 0.322175,-0.13668 l 1.093366,-1.66935 1.942671,-0.36118 a 0.31242198,0.31242198 0 0 0 0.253848,-0.25382 l 0.361185,-1.94269 0.01936,-0.009 z"
       style="color:#000000;text-indent:0;text-transform:none;direction:ltr;baseline-shift:baseline;display:inline;overflow:visible;visibility:visible;fill:#333333;fill-opacity:1;stroke:none;stroke-width:0.31239071;enable-background:accumulate" />
  </g>
</svg>
