<?xml version="1.0" encoding="UTF-8" standalone="no"?>
<!-- Created with Inkscape (http://www.inkscape.org/) -->

<svg
   xmlns:dc="http://purl.org/dc/elements/1.1/"
   xmlns:cc="http://creativecommons.org/ns#"
   xmlns:rdf="http://www.w3.org/1999/02/22-rdf-syntax-ns#"
   xmlns:svg="http://www.w3.org/2000/svg"
   xmlns="http://www.w3.org/2000/svg"
   xmlns:sodipodi="http://sodipodi.sourceforge.net/DTD/sodipodi-0.dtd"
   xmlns:inkscape="http://www.inkscape.org/namespaces/inkscape"
   width="79.459999"
   height="79.459999"
   id="svg3070"
   version="1.1"
   inkscape:version="0.92.3 (2405546, 2018-03-11)"
   sodipodi:docname="LinkedIn_Logo.svg">
  <defs
     id="defs3072" />
  <sodipodi:namedview
     id="base"
     pagecolor="#ffffff"
     bordercolor="#666666"
     borderopacity="1.0"
     inkscape:pageopacity="0.0"
     inkscape:pageshadow="2"
     inkscape:zoom="2.8"
     inkscape:cx="77.753759"
     inkscape:cy="33.703355"
     inkscape:document-units="px"
     inkscape:current-layer="layer1"
     showgrid="false"
     fit-margin-top="0"
     fit-margin-left="0"
     fit-margin-right="0"
     fit-margin-bottom="0"
     inkscape:window-width="1920"
     inkscape:window-height="1017"
     inkscape:window-x="1912"
     inkscape:window-y="-8"
     inkscape:window-maximized="1" />
  <metadata
     id="metadata3075">
    <rdf:RDF>
      <cc:Work
         rdf:about="">
        <dc:format>image/svg+xml</dc:format>
        <dc:type
           rdf:resource="http://purl.org/dc/dcmitype/StillImage" />
        <dc:title></dc:title>
      </cc:Work>
    </rdf:RDF>
  </metadata>
  <g
     inkscape:label="Layer 1"
     inkscape:groupmode="layer"
     id="layer1"
     transform="translate(-200.55198,-393.96227)">
    <path
       style="fill:#ffffff;fill-opacity:1;fill-rule:nonzero;stroke:none;stroke-width:1.01882696"
       d="m 207.9978,395.56824 c -3.09235,0 -5.59961,2.44716 -5.59961,5.46289 v 65.32422 c 0,3.01674 2.50726,5.46094 5.59961,5.46094 h 64.56836 c 3.09224,0 5.59961,-2.4442 5.59961,-5.46094 v -65.32422 c 0,-3.01573 -2.50737,-5.46289 -5.59961,-5.46289 z m 11.72266,12.79883 c 3.91505,0 6.32404,2.57079 6.39844,5.94922 0,3.30406 -2.48386,5.94922 -6.47461,5.94922 h -0.0742 c -3.84047,0 -6.32422,-2.64516 -6.32422,-5.94922 0,-3.37843 2.55997,-5.94922 6.47461,-5.94922 z m 33.73633,15.79102 c 7.52924,0 13.17382,4.92066 13.17382,15.49609 v 19.74219 h -11.44335 v -18.41992 c 0,-4.62853 -1.65586,-7.78516 -5.79688,-7.78516 -3.16142,0 -5.04381,2.12956 -5.87109,4.18555 -0.30216,0.73559 -0.37696,1.76199 -0.37696,2.79101 v 19.22852 h -11.44336 c 0,0 0.15018,-31.19899 0,-34.42969 h 11.44336 v 4.87891 c 1.51961,-2.34658 4.23522,-5.6875 10.31446,-5.6875 z m -10.31446,5.6875 c -0.0236,0.0365 -0.0531,0.0773 -0.0762,0.11328 h 0.0762 z m -29.2207,-4.87891 h 11.44531 v 34.42969 h -11.44531 z"
       id="path14"
       inkscape:connector-curvature="0" />
  </g>
</svg>
